<?xml version="1.0" encoding="UTF-8"?>
<svg id="Camada_1" xmlns="http://www.w3.org/2000/svg" version="1.1" viewBox="0 0 42 27">
  <!-- Generator: Adobe Illustrator 29.3.1, SVG Export Plug-In . SVG Version: 2.1.0 Build 151)  -->
  <defs>
    <style>
      .st0 {
        fill: #cec7bf;
      }

      .st1 {
        fill: #fff;
      }
    </style>
  </defs>
  <path class="st1" d="M.8,9.5L7.4,3.8c.9-.7,2.2-.6,2.9.3.7.9.6,2.2-.3,2.9l-4.6,4.1,13.5,11.4q.3,1.1.3,2.9c-.4.5-1,.8-1.6.8s-.9-.2-1.3-.5L.8,12.7c-.5-.4-.8-1-.8-1.6s.3-1.2.8-1.6Z"/>
  <path class="st0" d="M40.7,9.3l-6.6-5.7c-.9-.7-2.2-.6-2.9.3-.7.9-.6,2.2.3,2.9l4.6,4.1-13.5,11.4q-.3,1.1-.3,2.9c.4.5,1,.8,1.6.8s.9-.2,1.3-.5l15.5-13c.5-.4.8-1,.8-1.6s-.3-1.2-.8-1.6Z"/>
  <path class="st1" d="M17.3,25.9c-1.1-.3-1.8-1.2-1.6-2L21.9,1.5c.2-.8,1.3-1.2,2.4-.9.3,0,.5.2.8.3.7.4,1,1.1.9,1.6l-6.2,22.5c-.2.8-1.3,1.2-2.4.9Z"/>
</svg>